<svg width="175" height="185" viewBox="0 0 175 185" fill="none" xmlns="http://www.w3.org/2000/svg">
<path d="M54.3038 64.3414C41.1253 68.4731 36.0153 57.1443 34.4016 57.5441C32.7879 57.9439 35.8808 62.2089 35.3429 62.0756C31.6627 61.1638 30.2329 57.5441 26.3331 58.4771C22.4333 59.41 33.1913 68.4731 31.981 71.8051C30.7708 75.1371 22.6706 80.3838 16.5164 78.7357C15.3776 82.7476 14.9702 83.865 16.5164 86.466C18.9106 90.4932 25.296 85.2027 28.4847 88.0654C33.7206 91.8517 32.6509 87.1609 31.1742 99.2609C29.6975 111.361 35.0739 133.381 46.2353 151.374C57.3968 169.367 39.2427 184.827 39.2427 184.827C39.2427 184.827 35.5061 173.156 32.5189 165.901C25.2089 148.147 8.44796 122.985 8.44796 122.985C-2.71398 95.1925 -1.1357 82.7147 7.10321 62.6088C15.9667 46.0173 23.7408 38.4479 41.3943 27.2894C40.5606 24.8714 36.1296 27.0969 32.9224 27.2894C29.7151 27.4819 26.7544 18.9457 27.1399 11.1624C27.5255 3.37914 47.7146 18.4929 47.7146 18.4929C47.7146 18.4929 53.8781 -5.50867 56.8588 1.43294C58.3601 4.9291 56.8588 11.1624 56.8588 11.1624H59.6828C61.4877 7.16567 61.8344 2.89902 63.3136 2.89902C64.7929 2.89902 65.6022 7.02809 64.7929 14.0946L66.541 15.5607C66.541 15.5607 74.2972 7.57651 76.6266 11.1624C78.0222 13.3108 76.6266 14.6277 76.2232 17.6932C75.8198 20.7586 78.9227 23.9338 82.5435 25.4235C89.6707 28.3556 93.3015 32.2208 99.0839 34.22C104.866 36.2192 104.768 40.226 101.236 42.6167C97.7032 45.0073 95.3186 49.414 92.4946 48.3477C89.6707 47.2815 67.4824 60.2097 54.3038 64.3414Z" fill="#004E64"/>
<path d="M169.75 115.173C168.43 115.173 167.318 114.943 166.413 114.483C165.523 114.008 164.841 113.333 164.367 112.458C163.892 111.568 163.655 110.5 163.655 109.254C163.655 108.453 163.773 107.689 164.011 106.962C164.248 106.22 164.604 105.56 165.078 104.982C165.553 104.388 166.154 103.921 166.88 103.58C167.622 103.239 168.489 103.068 169.483 103.068C170.506 103.068 171.366 103.254 172.063 103.624C172.76 103.995 173.301 104.507 173.687 105.16C174.072 105.812 174.317 106.562 174.421 107.407C174.54 108.238 174.525 109.12 174.376 110.055H165.635L167.659 108.564C167.332 109.469 167.243 110.203 167.392 110.767C167.54 111.331 167.874 111.746 168.393 112.013C168.912 112.28 169.535 112.414 170.261 112.414C170.81 112.414 171.381 112.362 171.974 112.258C172.582 112.139 173.116 112.013 173.576 111.88L173.954 114.439C173.316 114.676 172.627 114.854 171.885 114.973C171.144 115.106 170.432 115.173 169.75 115.173ZM165.657 108.097H171.084C171.099 108.023 171.107 107.963 171.107 107.919C171.107 107.874 171.107 107.837 171.107 107.808C171.107 107.422 171.055 107.073 170.951 106.762C170.847 106.436 170.669 106.168 170.417 105.961C170.165 105.753 169.816 105.649 169.372 105.649C168.852 105.649 168.43 105.812 168.104 106.139C167.777 106.45 167.555 106.858 167.436 107.363C167.332 107.867 167.332 108.394 167.436 108.942L165.657 108.097Z" fill="#004E64"/>
<path d="M150.655 107.162C150.655 106.436 150.648 105.753 150.633 105.115C150.633 104.477 150.618 103.884 150.589 103.335L153.792 103.246L154.037 104.626H154.148C154.385 104.403 154.689 104.173 155.06 103.936C155.43 103.699 155.853 103.498 156.328 103.335C156.802 103.157 157.321 103.068 157.885 103.068C158.597 103.068 159.197 103.194 159.686 103.446C160.191 103.699 160.591 104.047 160.888 104.492C161.199 104.937 161.422 105.464 161.555 106.072C161.703 106.68 161.777 107.333 161.777 108.03V114.906H158.018V108.119C158.018 107.763 157.974 107.459 157.885 107.207C157.811 106.94 157.699 106.717 157.551 106.539C157.418 106.361 157.247 106.235 157.039 106.161C156.847 106.087 156.632 106.05 156.394 106.05C156.098 106.05 155.831 106.094 155.594 106.183C155.356 106.272 155.141 106.391 154.949 106.539C154.756 106.688 154.578 106.836 154.415 106.984V114.906H150.655V107.162Z" fill="#004E64"/>
<path d="M144.466 103.335L148.225 103.246V114.906H144.466V103.335ZM146.334 102.156C145.756 102.156 145.259 101.978 144.844 101.622C144.428 101.251 144.221 100.769 144.221 100.175C144.221 99.5821 144.428 99.1 144.844 98.7291C145.259 98.3583 145.756 98.1729 146.334 98.1729C146.912 98.1729 147.409 98.3583 147.824 98.7291C148.24 99.1 148.447 99.5821 148.447 100.175C148.447 100.769 148.24 101.251 147.824 101.622C147.409 101.978 146.912 102.156 146.334 102.156Z" fill="#004E64"/>
<path d="M138.23 98.2619L141.989 98.1729V114.906H138.23V98.2619Z" fill="#004E64"/>
<path d="M124.697 107.162C124.697 106.436 124.689 105.753 124.675 105.115C124.675 104.477 124.66 103.884 124.63 103.335L127.833 103.246L128.078 104.626H128.189C128.426 104.403 128.73 104.173 129.101 103.936C129.472 103.699 129.895 103.498 130.369 103.335C130.844 103.157 131.363 103.068 131.926 103.068C132.638 103.068 133.239 103.194 133.728 103.446C134.232 103.699 134.632 104.047 134.929 104.492C135.24 104.937 135.463 105.464 135.596 106.072C135.745 106.68 135.819 107.333 135.819 108.03V114.906H132.06V108.119C132.06 107.763 132.015 107.459 131.926 107.207C131.852 106.94 131.741 106.717 131.592 106.539C131.459 106.361 131.288 106.235 131.081 106.161C130.888 106.087 130.673 106.05 130.436 106.05C130.139 106.05 129.872 106.094 129.635 106.183C129.398 106.272 129.183 106.391 128.99 106.539C128.797 106.688 128.619 106.836 128.456 106.984V114.906H124.697V107.162Z" fill="#004E64"/>
<path d="M115.366 115.173C114.15 115.173 113.082 114.958 112.163 114.528C111.258 114.097 110.487 113.504 109.85 112.747C109.227 111.976 108.752 111.086 108.426 110.077C108.115 109.054 107.959 107.963 107.959 106.806C107.959 105.649 108.115 104.566 108.426 103.558C108.752 102.534 109.227 101.644 109.85 100.888C110.487 100.116 111.258 99.5153 112.163 99.0852C113.082 98.655 114.15 98.4399 115.366 98.4399C116.582 98.4399 117.642 98.655 118.547 99.0852C119.466 99.5153 120.238 100.116 120.86 100.888C121.498 101.644 121.973 102.534 122.284 103.558C122.61 104.566 122.773 105.649 122.773 106.806C122.773 107.963 122.61 109.054 122.284 110.077C121.973 111.086 121.498 111.976 120.86 112.747C120.238 113.504 119.466 114.097 118.547 114.528C117.642 114.958 116.582 115.173 115.366 115.173ZM115.366 112.058C115.945 112.058 116.449 111.939 116.879 111.702C117.324 111.464 117.687 111.116 117.969 110.656C118.265 110.196 118.48 109.647 118.614 109.009C118.762 108.357 118.836 107.622 118.836 106.806C118.836 105.99 118.762 105.264 118.614 104.626C118.48 103.973 118.265 103.417 117.969 102.957C117.687 102.497 117.324 102.148 116.879 101.911C116.449 101.674 115.945 101.555 115.366 101.555C114.788 101.555 114.276 101.674 113.831 101.911C113.401 102.148 113.038 102.497 112.741 102.957C112.46 103.417 112.245 103.973 112.096 104.626C111.963 105.264 111.896 105.99 111.896 106.806C111.896 107.622 111.963 108.357 112.096 109.009C112.245 109.647 112.46 110.196 112.741 110.656C113.038 111.116 113.401 111.464 113.831 111.702C114.276 111.939 114.788 112.058 115.366 112.058Z" fill="#004E64"/>
<path d="M91.1369 98.7069H101.236L101.058 101.822H94.9184V105.071H100.68L100.502 108.164H94.9184V111.791H101.547L101.347 114.906H91.1369V98.7069Z" fill="#004E64"/>
<path d="M83.628 115.173C82.1747 115.173 80.9216 114.965 79.8687 114.55C78.8307 114.12 77.978 113.526 77.3107 112.77C76.6433 112.013 76.1466 111.138 75.8203 110.144C75.5089 109.15 75.3532 108.09 75.3532 106.962C75.3532 105.657 75.546 104.485 75.9315 103.446C76.3319 102.393 76.8954 101.496 77.6221 100.754C78.3635 99.9975 79.2533 99.4263 80.2914 99.0407C81.3442 98.6401 82.5158 98.4399 83.8059 98.4399C84.7847 98.4399 85.6744 98.5289 86.4752 98.7069C87.276 98.8849 87.9136 99.0629 88.3882 99.2409L87.8543 102.312C87.3353 102.119 86.7644 101.948 86.1415 101.8C85.5187 101.637 84.7921 101.555 83.9616 101.555C83.2943 101.555 82.6715 101.666 82.0931 101.889C81.5296 102.096 81.0402 102.415 80.625 102.846C80.2098 103.276 79.8836 103.825 79.6463 104.492C79.4238 105.145 79.3126 105.916 79.3126 106.806C79.3126 107.963 79.5054 108.935 79.891 109.721C80.2765 110.493 80.8104 111.079 81.4925 111.479C82.1747 111.865 82.9606 112.058 83.8504 112.058C84.0877 112.058 84.3324 112.043 84.5845 112.013C84.8366 111.969 85.059 111.924 85.2518 111.88V107.096L86.8089 108.787H82.9606L83.1386 105.872H88.7886V114.283C88.3882 114.431 87.9062 114.579 87.3427 114.728C86.7792 114.861 86.1712 114.965 85.5187 115.039C84.881 115.128 84.2508 115.173 83.628 115.173Z" fill="#004E64"/>
<path d="M69.5445 98.7069H73.326V114.906H69.5445V98.7069Z" fill="#004E64"/>
<path d="M61.2825 115.173C60.3186 115.173 59.4066 115.076 58.5464 114.884C57.6863 114.676 57.0042 114.476 56.5 114.283L57.1006 111.346C57.6641 111.494 58.3018 111.657 59.0136 111.835C59.7402 111.998 60.4446 112.08 61.1268 112.08C61.6458 112.08 62.0907 112.013 62.4614 111.88C62.847 111.746 63.1435 111.553 63.3512 111.301C63.5588 111.049 63.6626 110.752 63.6626 110.411C63.6626 110.011 63.5291 109.677 63.2622 109.41C62.9953 109.143 62.6393 108.898 62.1945 108.675C61.7496 108.453 61.2602 108.23 60.7264 108.008C60.2518 107.785 59.7773 107.548 59.3027 107.296C58.8282 107.029 58.3907 106.717 57.9903 106.361C57.59 105.99 57.2711 105.553 57.0339 105.049C56.7966 104.544 56.678 103.943 56.678 103.246C56.678 102.223 56.9375 101.355 57.4565 100.643C57.9755 99.9307 58.6947 99.3893 59.6142 99.0184C60.5336 98.6327 61.5716 98.4399 62.7283 98.4399C63.5143 98.4399 64.2706 98.5215 64.9972 98.6846C65.7239 98.833 66.3467 99.0184 66.8657 99.2409L66.3319 102.178C65.9315 102.03 65.405 101.889 64.7525 101.755C64.1149 101.607 63.4846 101.533 62.8618 101.533C62.1203 101.533 61.5346 101.674 61.1045 101.956C60.6893 102.223 60.4817 102.586 60.4817 103.046C60.4817 103.417 60.6151 103.736 60.8821 104.003C61.1638 104.255 61.5271 104.492 61.972 104.715C62.4169 104.922 62.8914 105.145 63.3956 105.382C63.885 105.59 64.367 105.827 64.8415 106.094C65.3309 106.347 65.7758 106.658 66.1761 107.029C66.5765 107.385 66.8954 107.815 67.1326 108.319C67.3847 108.824 67.5108 109.425 67.5108 110.122C67.5108 111.145 67.2587 112.035 66.7545 112.792C66.2651 113.549 65.5533 114.134 64.6191 114.55C63.6848 114.965 62.5726 115.173 61.2825 115.173Z" fill="#004E64"/>
</svg>
