<svg width="151" height="185" viewBox="0 0 151 185" fill="none" xmlns="http://www.w3.org/2000/svg">
<path fill-rule="evenodd" clip-rule="evenodd" d="M35.8877 59.069C38.638 61.9084 43.9784 67.4218 53.8038 64.3414C60.2233 62.3288 68.7806 58.229 76.1962 54.6761C84.0041 50.9353 90.5463 47.8009 91.9946 48.3477C93.8367 49.0432 95.4918 47.4101 97.4004 45.5268C98.4178 44.5229 99.5073 43.4479 100.736 42.6167C104.268 40.226 104.366 36.2192 98.5839 34.22C95.6522 33.2064 93.2736 31.7132 90.7121 30.1051C88.2212 28.5414 85.5573 26.869 82.0435 25.4235C78.4227 23.9338 75.3198 20.7586 75.7232 17.6932C75.8571 16.6761 76.1001 15.8515 76.3142 15.1252C76.7455 13.6623 77.0592 12.598 76.1266 11.1624C73.7972 7.57651 66.041 15.5607 66.041 15.5607L64.2929 14.0946C65.1022 7.02809 64.2929 2.89902 62.8136 2.89902C61.9096 2.89902 61.4285 4.49286 60.779 6.64477C60.3659 8.0137 59.8846 9.60846 59.1828 11.1624H56.3588C56.3588 11.1624 57.8601 4.9291 56.3588 1.43294C53.3781 -5.50867 47.2146 18.4929 47.2146 18.4929C47.2146 18.4929 27.0255 3.37914 26.6399 11.1624C26.2544 18.9457 29.2151 27.4819 32.4224 27.2894C33.4316 27.2288 34.562 26.9669 35.6634 26.7118C38.062 26.1561 40.3229 25.6323 40.8943 27.2894C23.2408 38.4479 15.4667 46.0173 6.60321 62.6088C-1.6357 82.7147 -3.21398 95.1925 7.94796 122.985C7.94796 122.985 24.7089 148.147 32.0189 165.901C35.0061 173.156 38.7427 184.827 38.7427 184.827C38.7427 184.827 56.8968 169.367 45.7353 151.374C34.5739 133.381 29.1975 111.361 30.6742 99.2609C31.5039 92.4626 32.205 90.9646 31.7316 90.2855C31.3624 89.7559 30.2788 89.7244 27.9847 88.0654C26.4902 86.7237 24.2935 87.173 22.1346 87.6145C19.6872 88.1151 17.2885 88.6057 16.0164 86.466C14.5282 83.9627 14.8497 82.8336 15.8914 79.1754C15.932 79.0328 15.9737 78.8863 16.0164 78.7357C22.1706 80.3838 30.2708 75.1371 31.481 71.8051C32.0521 70.233 29.9587 67.385 27.9977 64.7171C25.8026 61.7306 23.7734 58.9698 25.8331 58.4771C28.1485 57.9231 29.5932 58.974 31.1551 60.1102C32.224 60.8877 33.3477 61.7052 34.8429 62.0756C35.0243 62.1206 34.7929 61.6655 34.4683 61.0272C33.8302 59.7723 32.832 57.8091 33.9016 57.5441C34.3122 57.4424 34.9491 58.0999 35.8877 59.069ZM111.42 110.846C110.459 110.846 109.548 110.746 108.688 110.547C107.842 110.348 107.167 110.163 106.665 109.993L107.311 106.922C107.856 107.078 108.48 107.235 109.183 107.391C109.9 107.547 110.588 107.626 111.248 107.626C111.722 107.626 112.123 107.569 112.453 107.455C112.797 107.341 113.063 107.185 113.249 106.986C113.436 106.773 113.529 106.524 113.529 106.24C113.529 105.898 113.4 105.614 113.142 105.387C112.898 105.145 112.568 104.925 112.152 104.725C111.736 104.526 111.284 104.32 110.796 104.107C110.337 103.894 109.871 103.659 109.398 103.403C108.939 103.147 108.516 102.849 108.128 102.508C107.741 102.152 107.433 101.733 107.203 101.25C106.974 100.752 106.859 100.169 106.859 99.5009C106.859 98.5057 107.117 97.6598 107.634 96.9632C108.15 96.2666 108.86 95.7335 109.764 95.3638C110.667 94.9942 111.7 94.8094 112.862 94.8094C113.637 94.8094 114.375 94.8876 115.078 95.044C115.795 95.1861 116.426 95.3709 116.971 95.5984L116.412 98.6479C116.01 98.5057 115.494 98.3707 114.863 98.2427C114.232 98.1005 113.615 98.0294 113.013 98.0294C112.324 98.0294 111.793 98.1432 111.42 98.3707C111.062 98.5839 110.882 98.8896 110.882 99.2876C110.882 99.6004 111.004 99.8705 111.248 100.098C111.506 100.325 111.844 100.539 112.259 100.738C112.675 100.923 113.12 101.129 113.593 101.356C114.052 101.555 114.511 101.783 114.971 102.039C115.444 102.28 115.874 102.579 116.261 102.934C116.663 103.275 116.979 103.695 117.208 104.192C117.452 104.676 117.574 105.259 117.574 105.941C117.574 106.936 117.33 107.803 116.842 108.543C116.355 109.282 115.645 109.851 114.712 110.249C113.794 110.647 112.697 110.846 111.42 110.846ZM133.37 110.846C131.921 110.846 130.681 110.64 129.648 110.227C128.63 109.815 127.798 109.246 127.152 108.521C126.507 107.782 126.026 106.943 125.711 106.005C125.409 105.052 125.259 104.05 125.259 102.998C125.259 101.733 125.452 100.596 125.84 99.5862C126.241 98.5768 126.801 97.7167 127.518 97.0059C128.235 96.295 129.103 95.7548 130.121 95.3852C131.14 95.0013 132.287 94.8094 133.564 94.8094C134.511 94.8094 135.378 94.8947 136.167 95.0653C136.956 95.2359 137.587 95.4136 138.061 95.5984L137.501 98.7971C136.999 98.5981 136.44 98.4275 135.823 98.2853C135.221 98.129 134.518 98.0508 133.714 98.0508C133.112 98.0508 132.545 98.1432 132.015 98.328C131.498 98.5128 131.046 98.7971 130.659 99.181C130.286 99.5648 129.992 100.062 129.777 100.674C129.562 101.271 129.454 101.982 129.454 102.806C129.454 103.872 129.626 104.761 129.971 105.472C130.315 106.183 130.803 106.716 131.434 107.071C132.065 107.427 132.782 107.604 133.585 107.604C133.772 107.604 133.965 107.59 134.166 107.562C134.381 107.533 134.568 107.505 134.726 107.476V104.811H132.703L132.875 101.783H138.448V109.993C138.046 110.135 137.566 110.277 137.006 110.419C136.447 110.547 135.852 110.647 135.221 110.718C134.589 110.803 133.973 110.846 133.37 110.846ZM140.694 95.0653H150.699L150.527 98.3067H144.674V101.036H150.161L149.967 104.278H144.674V107.348H151L150.806 110.59H140.694V95.0653ZM123.41 95.0653H119.43V110.59H123.41V95.0653ZM97.2958 110.526C97.9987 110.739 98.7087 110.846 99.4259 110.846C100.143 110.846 100.853 110.739 101.556 110.526C102.259 110.313 102.89 109.978 103.449 109.524C104.023 109.069 104.475 108.472 104.805 107.732C105.149 106.993 105.321 106.097 105.321 105.045C105.321 103.993 105.149 103.098 104.805 102.358C104.475 101.619 104.023 101.022 103.449 100.567C102.89 100.112 102.259 99.7781 101.556 99.5648C100.853 99.3516 100.143 99.2449 99.4259 99.2449C98.7087 99.2449 97.9987 99.3516 97.2958 99.5648C96.593 99.7781 95.9547 100.112 95.3809 100.567C94.8215 101.022 94.3697 101.619 94.0254 102.358C93.6955 103.098 93.5305 103.993 93.5305 105.045C93.5305 106.097 93.6955 106.993 94.0254 107.732C94.3697 108.472 94.8215 109.069 95.3809 109.524C95.9547 109.978 96.593 110.313 97.2958 110.526ZM100.114 107.903C99.8993 107.988 99.6698 108.031 99.4259 108.031C99.1964 108.031 98.9669 107.988 98.7374 107.903C98.5222 107.803 98.3286 107.647 98.1565 107.434C97.9843 107.22 97.8481 106.922 97.7477 106.538C97.6472 106.14 97.597 105.642 97.597 105.045C97.597 104.448 97.6472 103.958 97.7477 103.574C97.8481 103.176 97.9843 102.87 98.1565 102.657C98.3286 102.444 98.5222 102.294 98.7374 102.209C98.9669 102.11 99.1964 102.06 99.4259 102.06C99.6698 102.06 99.8993 102.11 100.114 102.209C100.33 102.294 100.516 102.444 100.674 102.657C100.846 102.87 100.982 103.176 101.083 103.574C101.183 103.958 101.233 104.448 101.233 105.045C101.233 105.642 101.183 106.14 101.083 106.538C100.982 106.922 100.846 107.22 100.674 107.434C100.516 107.647 100.33 107.803 100.114 107.903ZM85.0739 110.59V103.19C85.0739 102.38 85.0667 101.69 85.0524 101.122C85.0381 100.539 85.0237 99.9984 85.0094 99.5008L88.3874 99.4156L88.7101 101.143H88.7747C89.1906 100.546 89.707 100.07 90.3238 99.7141C90.9406 99.3445 91.6721 99.1952 92.5184 99.2663V102.721C91.873 102.636 91.2275 102.636 90.582 102.721C89.9509 102.792 89.4345 103.055 89.0329 103.51V110.59H85.0739ZM75.5189 107.396C76.1417 107.578 76.8002 107.668 77.4946 107.668C78.4843 107.668 79.3665 107.505 80.1411 107.178C80.93 106.837 81.5539 106.353 82.0129 105.728C82.472 105.088 82.7015 104.342 82.7015 103.489C82.7015 102.724 82.5235 102.056 82.1674 101.484H83.9279V99.5008H79.3845C78.794 99.3302 78.164 99.2449 77.4946 99.2449C76.5622 99.2449 75.6944 99.4155 74.8912 99.7567C74.1022 100.098 73.4711 100.588 72.9978 101.228C72.5388 101.854 72.3093 102.607 72.3093 103.489C72.3093 104.356 72.5388 105.102 72.9978 105.728C73.2719 106.09 73.599 106.405 73.979 106.671C73.6417 106.934 73.3361 107.224 73.0623 107.54C72.7181 107.924 72.5459 108.336 72.5459 108.777C72.5459 109.047 72.6033 109.289 72.7181 109.502C72.8472 109.715 73.0623 109.915 73.3635 110.099V110.142C72.8472 110.398 72.424 110.711 72.0941 111.08C71.7642 111.45 71.5992 111.947 71.5992 112.573C71.5992 113.127 71.7642 113.597 72.0941 113.98C72.4383 114.379 72.8902 114.691 73.4496 114.919C74.009 115.16 74.6186 115.331 75.2785 115.431C75.9526 115.544 76.6124 115.601 77.2579 115.601C78.721 115.601 79.9259 115.402 80.8726 115.004C81.8336 114.606 82.5508 114.094 83.0242 113.469C83.4976 112.843 83.7342 112.189 83.7342 111.507C83.7342 110.867 83.5836 110.362 83.2824 109.993C82.9812 109.623 82.5867 109.346 82.099 109.161C81.6257 108.962 81.1165 108.827 80.5714 108.756C80.0407 108.671 79.5386 108.614 79.0653 108.585L76.3112 108.415C75.9813 108.386 75.7303 108.336 75.5582 108.265C75.4004 108.194 75.3215 108.081 75.3215 107.924C75.3215 107.782 75.3573 107.654 75.4291 107.54C75.456 107.492 75.4859 107.444 75.5189 107.396ZM78.2692 105.067C78.0684 105.209 77.8102 105.28 77.4946 105.28C77.1934 105.28 76.9424 105.209 76.7415 105.067C76.5407 104.924 76.3829 104.718 76.2682 104.448C76.1678 104.178 76.1176 103.858 76.1176 103.489C76.1176 103.105 76.1678 102.778 76.2682 102.508C76.3686 102.238 76.5192 102.031 76.72 101.889C76.9352 101.747 77.1934 101.676 77.4946 101.676C77.8102 101.676 78.0684 101.747 78.2692 101.889C78.4843 102.031 78.6421 102.238 78.7425 102.508C78.8429 102.778 78.8931 103.105 78.8931 103.489C78.8931 103.858 78.8429 104.178 78.7425 104.448C78.6421 104.718 78.4843 104.924 78.2692 105.067ZM79.1083 112.594C78.7067 112.694 78.1831 112.744 77.5376 112.744C77.1073 112.744 76.72 112.715 76.3758 112.658C76.0315 112.616 75.7375 112.545 75.4936 112.445C75.2498 112.346 75.0561 112.218 74.9127 112.061C74.7836 111.919 74.719 111.741 74.719 111.528C74.719 111.357 74.7836 111.194 74.9127 111.038C75.0141 110.926 75.1154 110.836 75.2168 110.768C75.3108 110.809 75.4174 110.842 75.5367 110.867C75.7518 110.91 75.9957 110.945 76.2682 110.974L78.5274 111.144C78.7569 111.158 78.972 111.173 79.1728 111.187C79.3737 111.215 79.553 111.251 79.7107 111.294C79.8829 111.35 80.012 111.414 80.098 111.485C80.1984 111.571 80.2486 111.677 80.2486 111.805C80.2486 111.962 80.1554 112.111 79.9689 112.253C79.7968 112.395 79.5099 112.509 79.1083 112.594ZM62.378 95.0653H67.4772L71.9311 110.59H67.8L67.0083 107.178H62.8614L62.0767 110.59H57.9242L62.378 95.0653ZM66.3007 104.128L65.3902 100.205L64.9599 98.2H64.9168L64.465 100.205L63.5627 104.128H66.3007Z" fill="#004E64"/>
</svg>
